<svg id="visual" viewBox="0 0 900 600" width="900" height="600" xmlns="http://www.w3.org/2000/svg" xmlns:xlink="http://www.w3.org/1999/xlink" version="1.1"><rect x="0" y="0" width="900" height="600" fill="#002233"></rect><path d="M0 432L21.5 437.5C43 443 86 454 128.8 452.7C171.7 451.3 214.3 437.7 257.2 437.5C300 437.3 343 450.7 385.8 465.5C428.7 480.3 471.3 496.7 514.2 498.8C557 501 600 489 642.8 467.7C685.7 446.3 728.3 415.7 771.2 420.7C814 425.7 857 466.3 878.5 486.7L900 507L900 601L878.5 601C857 601 814 601 771.2 601C728.3 601 685.7 601 642.8 601C600 601 557 601 514.2 601C471.3 601 428.7 601 385.8 601C343 601 300 601 257.2 601C214.3 601 171.7 601 128.8 601C86 601 43 601 21.5 601L0 601Z" fill="#0066FF" stroke-linecap="round" stroke-linejoin="miter"></path></svg>